<svg width="183" height="93" viewBox="0 0 183 93" fill="none" xmlns="http://www.w3.org/2000/svg">
<path d="M43.7989 55.2774L4 92.4799L20.3097 83.812C22.1303 81.5931 25.6017 80.7841 27.1099 80.6569C30.4477 81.2949 33.0341 78.6575 33.9101 77.2591L38.272 69.5274C44.2974 57.5449 51.3486 64.2111 54.1211 69.042C55.2048 71.9821 61.9057 75.7451 65.1206 77.2591L61.138 69.5274C60.5962 66.5595 64.1272 65.1241 65.9605 64.7774C70.2519 75.9555 86.5869 84.5979 94.2179 87.5219C82.0588 74.5964 77.3935 60.3857 76.5807 54.896C77.3827 58.169 83.6338 63.2403 86.6591 65.3668C77.5127 47.3653 81.5477 42.4951 84.7085 42.3102C83.8849 40.0358 90.0909 46.0085 93.2968 49.2792C93.0584 51.5814 99.7358 60.2701 103.104 64.3267L101.072 59.0913C97.8863 46.5263 103.357 52.7926 106.491 57.4964C109.59 65.4569 116.994 71.469 120.308 73.4799C117.685 70.6507 117.301 67.424 117.436 66.1642C125.282 75.5949 140.284 79.7786 146.804 80.6916C140.931 73.369 139.318 69.8741 139.246 69.042C148.847 81.7179 172.416 90.2956 183 93C159.267 82.0161 146.308 65.8175 142.795 59.0913C142.21 57.2051 140.185 57.2421 139.246 57.4964L127.244 61.4489C127.2 62.8635 129.249 65.8291 130.278 67.135C126.442 65.8869 124.218 61.2524 123.586 59.0913C122.459 56.3453 121.563 56.3291 121.256 56.6642C116.163 56.8861 111.241 52.8504 109.417 50.8048C109.417 47.2267 106.509 45.5462 105.055 45.1533C99.6364 45.8745 93.0801 39.7908 90.4792 36.6588C88.5502 31.8325 85.431 32.7987 84.1125 33.885C76.3748 36.215 65.5722 48.3546 61.138 54.1332C58.7756 61.4558 55.4757 61.4373 54.1211 60.5128L49.1632 55.2774C47.1258 52.4205 44.7381 54.087 43.7989 55.2774Z" fill="white"/>
<path d="M23.1163 27.63L32.6882 42.8645L30.6849 44.1232L23.5474 32.7634L25.6214 47.3047L24.2124 48.1899L11.9756 40.0034L19.1269 51.3852L17.1235 52.644L7.55156 37.4095L9.70904 36.0539L23.257 45.1055L20.9808 28.9718L23.1163 27.63Z" fill="white"/>
<path d="M47.0426 36.9975C45.7924 37.4648 44.5497 37.6055 43.3144 37.4196C42.0953 37.2276 40.9993 36.7213 40.0264 35.9007C39.0636 35.0578 38.3243 33.9463 37.8084 32.5662C37.2986 31.2024 37.1418 29.8917 37.3378 28.6341C37.5441 27.3542 38.0555 26.247 38.872 25.3126C39.6824 24.362 40.7209 23.65 41.9873 23.1766C43.2537 22.7032 44.5045 22.5595 45.7398 22.7454C46.9691 22.9151 48.0701 23.4102 49.0431 24.2308C50.0322 25.0454 50.7847 26.1427 51.3006 27.5227C51.8165 28.9028 51.9632 30.2358 51.7407 31.5218C51.5284 32.7855 51.0089 33.8956 50.1822 34.8523C49.3555 35.809 48.309 36.5241 47.0426 36.9975ZM46.3143 35.0491C47.1098 34.7517 47.7869 34.2858 48.3455 33.6514C48.904 33.017 49.2548 32.2475 49.3977 31.3428C49.5569 30.4321 49.4362 29.441 49.0357 28.3694C48.6351 27.2978 48.0842 26.4675 47.3829 25.8784C46.6815 25.2894 45.9232 24.9437 45.1077 24.8414C44.2862 24.7229 43.4777 24.8123 42.6821 25.1097C41.8703 25.4131 41.1933 25.879 40.6509 26.5074C40.1188 27.1134 39.7893 27.8657 39.6626 28.7643C39.5359 29.6629 39.6728 30.648 40.0734 31.7196C40.48 32.8074 41.0177 33.6519 41.6866 34.2531C42.3717 34.8482 43.1169 35.2081 43.9221 35.3327C44.7213 35.441 45.5187 35.3465 46.3143 35.0491Z" fill="white"/>
<path d="M71.6237 15.8225L74.1586 29.8432L71.8303 30.2641L71.4557 28.1917C71.1417 28.9882 70.6209 29.6637 69.8932 30.218C69.1795 30.7521 68.3451 31.1056 67.3899 31.2783C66.2983 31.4756 65.2774 31.4312 64.3274 31.145C63.3742 30.8417 62.56 30.2843 61.8849 29.4728C61.2268 28.6583 60.7806 27.6028 60.5462 26.3065L59.0614 18.0936L61.3641 17.6773L62.7934 25.5832C63.0432 26.9648 63.5856 27.9676 64.4206 28.5917C65.2525 29.1987 66.274 29.3927 67.485 29.1738C68.7302 28.9486 69.6416 28.3876 70.2192 27.4905C70.7968 26.5934 70.953 25.4114 70.6878 23.9445L69.2955 16.2434L71.6237 15.8225Z" fill="white"/>
<path d="M90.143 14.492C91.8763 14.492 93.2803 15.0207 94.355 16.078C95.4296 17.118 95.967 18.626 95.967 20.602V29H93.627V20.94C93.627 19.5187 93.2716 18.4353 92.561 17.69C91.8503 16.9273 90.8796 16.546 89.649 16.546C88.401 16.546 87.4043 16.936 86.659 17.716C85.931 18.496 85.567 19.6313 85.567 21.122V29H83.201V14.752L85.567 14.752V16.78C86.035 16.052 86.6676 15.4887 87.465 15.09C88.2796 14.6913 89.1723 14.492 90.143 14.492Z" fill="white"/>
<path d="M109.607 18.1936L108.348 26.4968C108.244 27.1823 108.316 27.6928 108.563 28.0283C108.813 28.3467 109.298 28.5604 110.017 28.6695L111.74 28.9305L111.44 30.9099L109.332 30.5904C108.029 30.393 107.098 29.9451 106.538 29.2466C105.977 28.5481 105.801 27.5133 106.009 26.1423L107.267 17.8391L105.442 17.5625L105.734 15.6345L107.559 15.9111L108.097 12.3636L110.436 12.7181L109.899 16.2656L113.575 16.8227L113.283 18.7507L109.607 18.1936Z" fill="white"/>
<path d="M120.746 25.3829C121.183 23.994 121.847 22.8672 122.736 22.0025C123.632 21.1212 124.658 20.5447 125.816 20.273C126.99 20.0065 128.18 20.0632 129.387 20.443C130.578 20.8176 131.53 21.3991 132.245 22.1874C132.961 22.9757 133.411 23.8261 133.596 24.7385L134.376 22.2584L136.658 22.9764L132.381 36.5673L130.1 35.8493L130.896 33.3196C130.199 33.9727 129.322 34.4234 128.262 34.6715C127.225 34.9083 126.119 34.842 124.945 34.4726C123.738 34.0927 122.741 33.4517 121.952 32.5495C121.164 31.6473 120.658 30.5704 120.434 29.3188C120.21 28.0672 120.314 26.7552 120.746 25.3829ZM132.246 29.029C132.568 28.0039 132.643 27.046 132.469 26.1554C132.295 25.2648 131.915 24.5092 131.329 23.8886C130.764 23.2567 130.06 22.8081 129.217 22.5428C128.374 22.2774 127.543 22.2339 126.723 22.4122C125.904 22.5905 125.168 22.9948 124.515 23.6253C123.863 24.2558 123.375 25.0836 123.052 26.1087C122.725 27.1504 122.645 28.1248 122.814 29.0319C122.988 29.9226 123.357 30.6838 123.922 31.3157C124.491 31.9311 125.197 32.3714 126.041 32.6368C126.884 32.9021 127.715 32.9457 128.535 32.7674C129.376 32.5778 130.122 32.1677 130.775 31.5372C131.433 30.8902 131.923 30.0541 132.246 29.029Z" fill="white"/>
<path d="M149.062 25.8731C148.656 25.6782 148.379 25.3727 148.233 24.9564C148.086 24.5402 148.111 24.1289 148.305 23.7225C148.5 23.3162 148.806 23.0398 149.222 22.8934C149.638 22.747 150.05 22.7712 150.456 22.9661C150.847 23.1534 151.107 23.4515 151.238 23.8602C151.385 24.2765 151.36 24.6878 151.166 25.0941C150.971 25.5005 150.665 25.7769 150.249 25.9233C149.848 26.0772 149.453 26.0605 149.062 25.8731ZM149.093 28.4542L142.932 41.3014L140.799 40.2783L146.959 27.4312L149.093 28.4542Z" fill="white"/>
<path d="M165.104 37.3481C166.548 38.3058 167.426 39.5221 167.738 40.9972C168.059 42.4578 167.674 44.0116 166.582 45.6586L161.942 52.6584L159.992 51.3656L164.445 44.6475C165.23 43.4628 165.533 42.3635 165.352 41.3496C165.181 40.3213 164.583 39.4671 163.557 38.7872C162.517 38.0977 161.471 37.8721 160.418 38.1104C159.381 38.3583 158.45 39.1035 157.626 40.346L153.274 46.9124L151.302 45.6052L159.174 33.7293L161.146 35.0365L160.025 36.7269C160.818 36.3787 161.656 36.2587 162.541 36.3669C163.44 36.4847 164.294 36.8118 165.104 37.3481Z" fill="white"/>
</svg>
